HIERARCHY
ROOT Hips
{
	OFFSET 0.000000 0.000000 0.000000
	CHANNELS 6 Xposition Yposition Zposition Zrotation Yrotation Xrotation 
	JOINT LowerBack
	{
		OFFSET 0.000000 0.000000 0.000000
		CHANNELS 3 Zrotation Yrotation Xrotation
		JOINT Spine
		{
			OFFSET 0.028270 2.035590 -0.193380
			CHANNELS 3 Zrotation Yrotation Xrotation
			JOINT Spine1
			{
				OFFSET 0.056720 2.048850 -0.042750
				CHANNELS 3 Zrotation Yrotation Xrotation
				JOINT Neck
				{
					OFFSET 0.000000 0.000000 0.000000
					CHANNELS 3 Zrotation Yrotation Xrotation
					JOINT Neck1
					{
						OFFSET -0.054170 1.746240 0.172020
						CHANNELS 3 Zrotation Yrotation Xrotation
						JOINT Head
						{
							OFFSET 0.104070 1.761360 -0.123970
							CHANNELS 3 Zrotation Yrotation Xrotation
							End Site
							{
								OFFSET 0.000000 0.000000 0.000000
							}
						}
					}
				}
				JOINT LeftShoulder
				{
					OFFSET 0.000000 0.000000 0.000000
					CHANNELS 3 Zrotation Yrotation Xrotation
					JOINT LeftArm
					{
						OFFSET 3.362410 1.200890 -0.311210
						CHANNELS 3 Zrotation Yrotation Xrotation
						JOINT LeftForeArm
						{
							OFFSET 4.983000 -0.000000 -0.000000
							CHANNELS 3 Zrotation Yrotation Xrotation
							JOINT LeftHand
							{
								OFFSET 3.483560 -0.000000 -0.000000
								CHANNELS 3 Zrotation Yrotation Xrotation
								JOINT LeftFingerBase
								{
									OFFSET 0.000000 0.000000 0.000000
									CHANNELS 3 Zrotation Yrotation Xrotation
									JOINT LeftHandIndex1
									{
										OFFSET 0.715260 -0.000000 -0.000000
										CHANNELS 3 Zrotation Yrotation Xrotation
										End Site
										{
											OFFSET 0.000000 0.000000 0.000000
										}
									}
								}
								JOINT LThumb
								{
									OFFSET 0.000000 0.000000 0.000000
									CHANNELS 3 Zrotation Yrotation Xrotation
									End Site
									{
										OFFSET 0.000000 0.000000 0.000000
									}
								}
							}
						}
					}
				}
				JOINT RightShoulder
				{
					OFFSET 0.000000 0.000000 0.000000
					CHANNELS 3 Zrotation Yrotation Xrotation
					JOINT RightArm
					{
						OFFSET -3.136600 1.374050 -0.404650
						CHANNELS 3 Zrotation Yrotation Xrotation
						JOINT RightForeArm
						{
							OFFSET -5.241900 -0.000000 -0.000000
							CHANNELS 3 Zrotation Yrotation Xrotation
							JOINT RightHand
							{
								OFFSET -3.444170 -0.000000 -0.000000
								CHANNELS 3 Zrotation Yrotation Xrotation
								JOINT RightFingerBase
								{
									OFFSET 0.000000 0.000000 0.000000
									CHANNELS 3 Zrotation Yrotation Xrotation
									JOINT RightHandIndex1
									{
										OFFSET -0.622530 -0.000000 -0.000000
										CHANNELS 3 Zrotation Yrotation Xrotation
										End Site
										{
											OFFSET 0.000000 0.000000 0.000000
										}
									}
								}
								JOINT RThumb
								{
									OFFSET 0.000000 0.000000 0.000000
									CHANNELS 3 Zrotation Yrotation Xrotation
									End Site
									{
										OFFSET 0.000000 0.000000 0.000000
									}
								}
							}
						}
					}
				}
			}
		}
	}
}
}
MOTION
Frames: 15
Frame Time: 0.008333
5.297291 17.382477 0.480036 4.022364 -66.464801 7.389569 -3.566094 3.404159 -4.331701 -1.008490 3.708729 -4.347037 -1.475609 3.764799 -3.349530 -2.634276 9.249304 2.438907 -0.802923 -0.226152 2.778691 0.000000 0.000000 0.000000 1.660482 6.263192 -8.452377 -85.956494 -63.279801 14.464706 174.071468 -50.261031 179.506658 27.397141 -18.942888 -5.096679 -0.383613 1.420568 -0.000000 0.000000 0.000000 0.000000 0.000000 0.000000 0.000000 -10.569065 12.383573 3.530901 42.641821 52.126238 -29.852085 -0.469570 3.278788 -0.011679 -2.056820 -7.360182 0.133735 0.057838 -0.110747 0.000000 0.000000 0.000000 0.000000 0.000000 0.000000 0.000000 
5.300717 17.381992 0.486912 3.999956 -67.056934 7.249669 -3.492591 3.323352 -4.314512 -1.026445 3.617033 -4.358808 -1.641964 3.676070 -3.407909 -2.276354 9.092510 2.479872 -0.860582 -0.230138 2.788611 0.000000 0.000000 0.000000 1.957258 6.213212 -8.357646 -85.545043 -63.399747 13.830642 174.089053 -50.599664 179.503806 27.675194 -18.780093 -5.106838 -0.389620 1.414765 -0.000000 0.000000 0.000000 0.000000 0.000000 0.000000 0.000000 -10.050367 12.222967 3.363842 44.423770 51.981099 -27.229174 -0.492627 5.252474 -0.007145 -1.150347 -7.394532 0.075275 0.035521 -0.116885 0.000000 0.000000 0.000000 0.000000 0.000000 0.000000 0.000000 
5.303041 17.382110 0.495379 3.980689 -67.667708 7.124724 -3.419940 3.238433 -4.333344 -1.041461 3.521600 -4.375244 -1.797623 3.582858 -3.456018 -1.928832 8.892533 2.531423 -0.912443 -0.234021 2.802140 0.000000 0.000000 0.000000 2.254131 6.161097 -8.273109 -85.191165 -63.511642 13.235216 174.116563 -50.983286 179.501949 27.885313 -18.549956 -5.085181 -0.393832 1.407052 -0.000000 0.000000 0.000000 0.000000 0.000000 0.000000 0.000000 -9.576821 12.028212 3.188613 46.085357 51.679464 -24.034589 -0.486151 7.622509 -0.002316 -0.135605 -7.843932 0.010024 0.013859 -0.117029 -0.000000 0.000000 0.000000 0.000000 0.000000 0.000000 0.000000 
5.304245 17.382719 0.505342 3.966245 -68.289493 7.010767 -3.347802 3.148726 -4.385262 -1.053164 3.421718 -4.395590 -1.941974 3.484475 -3.493461 -1.590299 8.655011 2.596083 -0.959935 -0.237909 2.819879 0.000000 0.000000 0.000000 2.535281 6.104181 -8.198042 -84.882694 -63.626500 12.686332 174.158128 -51.408107 179.501156 28.014391 -18.277559 -5.036009 -0.395945 1.398257 -0.000000 0.000000 0.000000 0.000000 0.000000 0.000000 0.000000 -9.132585 11.800503 3.005504 47.539041 51.274200 -20.634899 -0.468260 10.268203 0.002616 0.877196 -8.508207 -0.064824 -0.006296 -0.114400 -0.000000 0.000000 0.000000 0.000000 0.000000 0.000000 0.000000 
5.304567 17.383651 0.516636 3.956855 -68.915242 6.904611 -3.274957 3.053043 -4.465056 -1.060368 3.316220 -4.419611 -2.071528 3.379928 -3.524549 -1.264282 8.399916 2.676886 -1.001886 -0.241778 2.842619 0.000000 0.000000 0.000000 2.795657 6.037253 -8.129050 -84.600481 -63.741771 12.173554 174.211128 -51.857965 179.501394 28.068609 -17.965576 -4.961625 -0.396246 1.388460 -0.000000 0.000000 0.000000 0.000000 0.000000 0.000000 0.000000 -8.721272 11.555663 2.812109 48.755802 50.793992 -17.330267 -0.457518 13.127192 0.007559 1.820529 -9.241449 -0.147274 -0.024980 -0.111485 0.000000 0.000000 0.000000 0.000000 0.000000 0.000000 0.000000 
5.304107 17.384733 0.529059 3.956337 -69.540187 6.802694 -3.199552 2.951181 -4.564883 -1.063128 3.204708 -4.446228 -2.188071 3.269039 -3.552310 -0.952338 8.124233 2.771225 -1.040223 -0.245679 2.869524 0.000000 0.000000 0.000000 3.031347 5.960016 -8.064625 -84.328006 -63.860916 11.691300 174.274056 -52.319877 179.502493 28.058315 -17.632825 -4.869833 -0.395045 1.378250 -0.000000 0.000000 0.000000 0.000000 0.000000 0.000000 0.000000 -8.332592 11.284954 2.605250 49.732871 50.308141 -14.297348 -0.469749 16.095402 0.012389 2.625346 -9.874820 -0.227728 -0.042224 -0.110953 0.000000 0.000000 0.000000 0.000000 0.000000 0.000000 0.000000 
5.303090 17.385774 0.542397 3.969109 -70.161662 6.699576 -3.119335 2.843316 -4.675399 -1.060931 3.087219 -4.474420 -2.291259 3.152085 -3.581598 -0.660842 7.832872 2.876404 -1.074120 -0.249514 2.899798 0.000000 0.000000 0.000000 3.239048 5.872400 -8.001668 -84.045654 -63.984681 11.226601 174.343410 -52.778680 179.504203 28.001210 -17.295103 -4.768538 -0.392798 1.368050 -0.000000 0.000000 0.000000 0.000000 0.000000 0.000000 0.000000 -7.976278 10.990312 2.380514 50.512719 49.853642 -11.648136 -0.517415 19.118928 0.017044 3.244977 -10.305932 -0.294388 -0.058363 -0.114634 0.000000 0.000000 0.000000 0.000000 0.000000 0.000000 0.000000 
5.301981 17.386579 0.556398 3.995772 -70.778852 6.590851 -3.033333 2.730204 -4.787667 -1.054030 2.964410 -4.503191 -2.382818 3.029934 -3.616692 -0.391748 7.524634 2.988984 -1.103981 -0.253240 2.932418 0.000000 0.000000 0.000000 3.420996 5.774708 -7.937896 -83.740157 -64.112782 10.770935 174.415986 -53.221500 179.506240 27.915395 -16.972935 -4.666943 -0.389933 1.358461 -0.000000 0.000000 0.000000 0.000000 0.000000 0.000000 0.000000 -7.653485 10.668872 2.134225 51.138255 49.457461 -9.395709 -0.605627 22.161470 0.021357 3.636606 -10.459742 -0.335353 -0.073453 -0.124014 0.000000 0.000000 0.000000 0.000000 0.000000 0.000000 0.000000 
5.300915 17.387027 0.570897 4.039903 -71.391999 6.473203 -2.942088 2.612475 -4.894646 -1.043169 2.836899 -4.531502 -2.465248 2.903334 -3.659613 -0.144919 7.190137 3.103949 -1.131011 -0.256837 2.965936 0.000000 0.000000 0.000000 3.583648 5.669993 -7.872038 -83.404947 -64.244471 10.319313 174.488701 -53.639100 179.508272 27.819782 -16.687128 -4.574052 -0.386869 1.350090 -0.000000 0.000000 0.000000 0.000000 0.000000 0.000000 0.000000 -7.360659 10.309675 1.863586 51.650912 49.146908 -7.502756 -0.733052 25.193450 0.025021 3.769967 -10.286295 -0.342121 -0.087389 -0.140176 0.000000 0.000000 0.000000 0.000000 0.000000 0.000000 0.000000 
5.300101 17.387029 0.585697 4.103050 -72.002606 6.343957 -2.846012 2.490753 -4.991115 -1.028712 2.705331 -4.558681 -2.539608 2.773013 -3.712102 0.078948 6.827694 3.217434 -1.155171 -0.260239 2.999267 0.000000 0.000000 0.000000 3.733524 5.562754 -7.802581 -83.035498 -64.377187 9.865514 174.558133 -54.020062 179.510018 27.729801 -16.454668 -4.496868 -0.383946 1.343439 -0.000000 0.000000 0.000000 0.000000 0.000000 0.000000 0.000000 -7.101571 9.910454 1.566856 52.095199 48.926362 -5.937629 -0.894105 28.215519 0.027641 3.639356 -9.784626 -0.314395 -0.100110 -0.163479 0.000000 0.000000 0.000000 0.000000 0.000000 0.000000 0.000000 
5.299631 17.386601 0.600698 4.185661 -72.611448 6.202130 -2.746136 2.365342 -5.073780 -1.011468 2.570004 -4.583827 -2.608442 2.639262 -3.772925 0.281614 6.426887 3.324252 -1.177683 -0.263427 3.030952 0.000000 0.000000 0.000000 3.877063 5.459713 -7.729795 -82.635076 -64.510892 9.410931 174.622452 -54.360438 179.511255 27.657012 -16.290291 -4.441092 -0.381391 1.338930 -0.000000 0.000000 0.000000 0.000000 0.000000 0.000000 0.000000 -6.872189 9.459691 1.244444 52.507557 48.807629 -4.645221 -1.078405 31.224678 0.028713 3.257710 -8.979476 -0.258472 -0.111440 -0.193675 -0.000000 0.000000 0.000000 0.000000 0.000000 0.000000 0.000000 
5.299520 17.385692 0.615744 4.289453 -73.221761 6.045750 -2.641748 2.236096 -5.142192 -0.989270 2.431028 -4.608772 -2.663587 2.502215 -3.850032 0.454446 6.044458 3.431221 -1.190345 -0.266080 3.063000 0.000000 0.000000 0.000000 4.019096 5.361874 -7.646985 -82.191142 -64.628426 8.928782 174.676541 -54.648215 179.511921 27.606342 -16.184210 -4.404527 -0.379224 1.336230 -0.000000 0.000000 0.000000 0.000000 0.000000 0.000000 0.000000 -6.720802 9.018190 0.896111 52.959289 48.691980 -3.708732 -1.275737 34.336865 0.028264 2.710870 -8.011228 -0.192352 -0.122399 -0.228818 -0.000000 0.000000 0.000000 0.000000 0.000000 0.000000 0.000000 
5.299619 17.384459 0.630860 4.411698 -73.832084 5.879235 -2.535130 2.103201 -5.197207 -0.965994 2.288210 -4.630482 -2.719097 2.361519 -3.928794 0.613704 5.606555 3.522579 -1.204712 -0.268556 3.090869 0.000000 0.000000 0.000000 4.168136 5.284905 -7.563426 -81.730950 -64.747340 8.451529 174.724072 -54.894843 179.511919 27.579301 -16.154273 -4.392170 -0.377531 1.335933 -0.000000 0.000000 0.000000 0.000000 0.000000 0.000000 0.000000 -6.582682 8.505419 0.528273 53.432965 48.691387 -2.936546 -1.468431 37.446197 0.025615 2.002558 -6.861642 -0.122636 -0.132063 -0.268458 -0.000000 0.000000 0.000000 0.000000 0.000000 0.000000 0.000000 
5.299797 17.382955 0.645967 4.552663 -74.444204 5.701798 -2.424921 1.966361 -5.241871 -0.938634 2.141549 -4.652112 -2.763925 2.217161 -4.019672 0.749461 5.196092 3.611710 -1.209841 -0.270495 3.118389 0.000000 0.000000 0.000000 4.326303 5.225337 -7.471402 -81.241433 -64.845264 7.947037 174.760389 -55.089190 179.511372 27.570845 -16.176050 -4.396423 -0.376104 1.337286 -0.000000 0.000000 0.000000 0.000000 0.000000 0.000000 0.000000 -6.518450 8.010246 0.142677 53.995626 48.668354 -2.454774 -1.645124 40.698798 0.021431 1.253860 -5.710905 -0.065523 -0.142096 -0.309641 -0.000000 0.000000 0.000000 0.000000 0.000000 0.000000 0.000000 
5.299846 17.381355 0.661101 4.708033 -75.055596 5.518708 -2.312378 1.826175 -5.279614 -0.910273 1.991243 -4.671410 -2.809608 2.069190 -4.109164 0.876989 4.758496 3.687968 -1.215393 -0.272232 3.142439 0.000000 0.000000 0.000000 4.496576 5.194526 -7.379535 -80.751208 -64.939058 7.446943 174.789847 -55.245029 179.510391 27.573958 -16.248395 -4.415981 -0.374881 1.340320 -0.000000 0.000000 0.000000 0.000000 0.000000 0.000000 0.000000 -6.471548 7.473918 -0.252463 54.621921 48.704768 -2.116162 -1.790687 44.014354 0.015629 0.483748 -4.569779 -0.023116 -0.151968 -0.351315 -0.000000 0.000000 0.000000 0.000000 0.000000 0.000000 0.000000 
